<?xml version="1.0" encoding="utf-8"?>
<!-- Generator: Adobe Illustrator 23.1.1, SVG Export Plug-In . SVG Version: 6.00 Build 0)  -->
<svg version="1.1" id="Layer_1" xmlns="http://www.w3.org/2000/svg" xmlns:xlink="http://www.w3.org/1999/xlink" x="0px" y="0px"
	 viewBox="0 0 1280 800" style="enable-background:new 0 0 1280 800;" xml:space="preserve">
<style type="text/css">
	.st0{fill:#D11242;}
	.st1{fill:#465560;}
</style>
<path class="st0" d="M102.8,714.5c-3.6,0-6.4,2.9-6.4,6.4c0,3.6,2.9,6.4,6.4,6.4c3.6,0,6.4-2.9,6.4-6.4
	C109.2,717.4,106.3,714.5,102.8,714.5 M105.6,723.6l-1.3,1l-1.6-2.3l-1.5,2.2l-1.3-1l1.6-2.1l-2.5-0.9l0.5-1.5l2.5,1v-2.7h1.7v2.7
	l2.5-1l0.5,1.5l-2.6,0.9L105.6,723.6z"/>
<path class="st1" d="M111.3,716.2h4.9c1.2,0,2.1,0.3,2.6,0.9c0.4,0.4,0.6,0.9,0.6,1.5v0c0,1.1-0.6,1.8-1.5,2.1
	c1.2,0.4,1.9,1,1.9,2.3v0c0,1.6-1.3,2.6-3.6,2.6h-5V716.2z M115.6,720c0.8,0,1.3-0.3,1.3-0.8v0c0-0.5-0.4-0.8-1.2-0.8h-1.7v1.7
	H115.6z M115.9,723.6c0.8,0,1.3-0.3,1.3-0.9v0c0-0.5-0.4-0.9-1.3-0.9h-2v1.8H115.9z"/>
<polygon class="st1" points="136,716.2 138.5,716.2 142.4,721.2 142.4,716.2 145.1,716.2 145.1,725.8 142.7,725.8 138.6,720.5 
	138.6,725.8 136,725.8 "/>
<path class="st1" d="M129.2,725.7h-2.9l6.7-9.6h2.3v9.6H133v-1.4h-2.9L129.2,725.7z M133,722.3v-2.3l-1.5,2.3H133z"/>
<polygon class="st0" points="166.5,716.1 168.9,716.1 168.9,722.2 173.1,716.1 176,716.1 169.3,725.7 166.5,725.7 "/>
<path class="st1" d="M145.7,716.2h3.7c3.4,0,5.4,2,5.4,4.7v0c0,2.8-2,4.8-5.5,4.8h-3.6V716.2z M149.4,723.4c1.6,0,2.6-0.9,2.6-2.4v0
	c0-1.5-1.1-2.4-2.6-2.4h-1.1v4.9H149.4z"/>
<polygon class="st0" points="155.2,716.2 157.9,716.2 157.9,723.4 162.5,723.4 162.5,725.8 155.2,725.8 "/>
<rect x="163.2" y="716.2" class="st0" width="2.7" height="9.6"/>
<path class="st1" d="M122.9,722.8h1.2l1.7,2.5l1.5-2.2l-0.5-0.8c1.2-0.5,2-1.5,2-2.9v0c0-0.9-0.3-1.7-0.9-2.2c-0.6-0.7-1.7-1-3.1-1
	h-4.5v9.6h2.7V722.8z M122.9,718.5h1.7c0.9,0,1.4,0.4,1.4,1.1v0c0,0.7-0.5,1.1-1.4,1.1h-1.8V718.5z"/>
<polygon class="st0" points="176.2,722 180.8,722 180.8,719.9 176.2,719.9 176.2,718.4 181.2,718.4 181.2,716.2 176.7,716.2 
	173.5,720.7 173.5,725.8 181.3,725.8 181.3,723.5 176.2,723.5 "/>
</svg>
