<svg xmlns="http://www.w3.org/2000/svg" width="29" height="24" viewBox="0 0 29 24">
  <defs>
    <style>
      .cls-1 {
        fill: #fff;
        fill-rule: evenodd;
      }
    </style>
  </defs>
  <path class="cls-1" d="M712.952,45.04h-26.9a1.019,1.019,0,1,1,0-2.038h26.9A1.019,1.019,0,1,1,712.952,45.04ZM709.585,67H689.167a1.934,1.934,0,0,1-1.958-1.905c0-.018,0-0.036,0-0.053L688.137,47.9a1.039,1.039,0,0,1,1.1-.964,1.029,1.029,0,0,1,.99,1.071l-0.917,16.952h20.129l-0.9-20.026a1.048,1.048,0,0,1,2.093-.089l0.911,20.2c0,0.015,0,.03,0,0.045A1.935,1.935,0,0,1,709.585,67ZM699.376,50.67a5.225,5.225,0,0,1-5.289-5.146,1.047,1.047,0,0,1,2.094,0,3.156,3.156,0,0,0,3.195,3.108,3.217,3.217,0,0,0,2.793-1.6,3.048,3.048,0,0,0,.4-1.51,1.048,1.048,0,0,1,2.095,0,5.041,5.041,0,0,1-.666,2.5A5.323,5.323,0,0,1,699.376,50.67Z" transform="translate(-685 -43)"/>
</svg>
