<svg xmlns="http://www.w3.org/2000/svg" width="24" height="28" viewBox="0 0 24 28">
  <defs>
    <style>
      .cls-1 {
        fill: #fff;
        fill-rule: evenodd;
      }
    </style>
  </defs>
  <path class="cls-1" d="M806.887,69a9.263,9.263,0,0,1-5.121-1.59c-1.945-1.228-6.121-4.031-6.3-4.149a1.054,1.054,0,0,1-.47-0.874V48.034c0-3.391,1.281-5.151,4.153-5.707,3.077-.6,7.1-1.218,7.135-1.225a1.451,1.451,0,0,0,.613-0.087c3.673-.312,7.009,5.045,7.609,6.064a14.7,14.7,0,0,1,4.1,8.2c1.1,5.1-.24,9.813-2.184,11.022a27.252,27.252,0,0,1-6.93,2.358A10.819,10.819,0,0,1,806.887,69Zm-9.728-7.172c1.172,0.784,4.237,2.829,5.777,3.8a7.146,7.146,0,0,0,6.026.982,26.53,26.53,0,0,0,6.3-2.093c0.936-.581,2.217-4.212,1.227-8.793a12.567,12.567,0,0,0-3.666-7.309,1.084,1.084,0,0,1-.14-0.19c-1.182-2.054-3.753-5.253-5.6-5.1a1.13,1.13,0,0,1-.209,0,1.09,1.09,0,0,1-.253.071c-0.04.006-4.018,0.623-7.053,1.21-1.6.309-2.411,0.955-2.411,3.628V61.825Zm6.2,1.95a1.085,1.085,0,0,1-.912-0.49,1.048,1.048,0,0,1,.33-1.463,2.294,2.294,0,0,0,.882-1.5,6.78,6.78,0,0,0-1.033-4.8c-0.745-1.069-1.731-1.588-2.4-1.261a1.091,1.091,0,0,1-1.45-.474,1.05,1.05,0,0,1,.483-1.421c1.686-.826,3.754-0.038,5.148,1.961a8.8,8.8,0,0,1,1.365,6.418,4.267,4.267,0,0,1-1.837,2.866A1.092,1.092,0,0,1,803.355,63.775Zm2.171-15.739a5.383,5.383,0,0,1-3-.988c-1.211-.812-2.841-2.556-2.49-3.72a1.084,1.084,0,0,1,1.343-.716,1.064,1.064,0,0,1,.774,1.009,5.108,5.108,0,0,0,2.607,2.176,2.343,2.343,0,0,0,2.242-.417,1.1,1.1,0,0,1,1.516.189,1.046,1.046,0,0,1-.193,1.486A4.59,4.59,0,0,1,805.526,48.037Z" transform="translate(-795 -41)"/>
</svg>
