<svg xmlns="http://www.w3.org/2000/svg" width="33" height="23" viewBox="0 0 33 23">
  <defs>
    <style>
      .cls-1 {
        fill: #fff;
        fill-rule: evenodd;
      }
    </style>
  </defs>
  <path class="cls-1" d="M464.555,67c-3.522,0-6.5-.962-8.383-2.709A9.849,9.849,0,0,1,453,56.931a10.75,10.75,0,0,1,2.818-7.49,1,1,0,0,1,.14-0.111,7.677,7.677,0,0,1,4.063-.964,14.749,14.749,0,0,1,6.221,1.537c5.383-.874,11.174-5.614,11.233-5.663A1.07,1.07,0,0,1,478.158,44,8.168,8.168,0,0,1,486,52.418c0.015,4.846-5.111,9.841-13.377,13.036A22.641,22.641,0,0,1,464.555,67ZM457.2,50.966a9,9,0,0,0-2.1,5.959,7.913,7.913,0,0,0,2.529,5.913c1.491,1.383,3.952,2.145,6.93,2.145a20.447,20.447,0,0,0,7.286-1.4c7.34-2.837,12.075-7.216,12.063-11.157a6.163,6.163,0,0,0-5.385-6.394c-1.386,1.088-6.918,5.2-12.3,5.919a1.088,1.088,0,0,1-.619-0.1,12.857,12.857,0,0,0-5.578-1.465A6.2,6.2,0,0,0,457.2,50.966ZM471.873,53.6a13.662,13.662,0,0,1-6.3-1.758,0.99,0.99,0,0,1-.423-1.368,1.068,1.068,0,0,1,1.42-.407c4.358,2.273,7.768,2.01,10.424-.8a1.075,1.075,0,0,1,1.479-.067,0.983,0.983,0,0,1,.07,1.425A8.993,8.993,0,0,1,471.873,53.6Z" transform="translate(-453 -44)"/>
</svg>
