<?xml version="1.0" encoding="utf-8"?>
<!-- Generator: Adobe Illustrator 23.1.1, SVG Export Plug-In . SVG Version: 6.00 Build 0)  -->
<svg version="1.1" id="Layer_1" xmlns="http://www.w3.org/2000/svg" xmlns:xlink="http://www.w3.org/1999/xlink" x="0px" y="0px"
	 viewBox="0 0 171.5 76.6" style="enable-background:new 0 0 171.5 76.6;" xml:space="preserve">
<g>
	<g>
		<path d="M139,25.7c3.6,0,6.1-2.6,6.1-6.4c0-3.6-2.6-6.3-6.1-6.3c-3.6,0-6.1,2.6-6.1,6.3C132.9,23.1,135.4,25.7,139,25.7z"/>
		<path d="M43.5,18.1c-4-3.5-9.6-5.2-16.7-5.2c-11.4,0-18.4,2.2-18.4,5.7v46.2c0,2.3,2.5,3.8,6.1,3.8c3.7,0,6.2-1.5,6.2-3.8v-13
			c3.2,0.7,6.1,1,8.8,1c6.7,0,12-2,15.5-6c3-3.4,4.6-8.1,4.6-13.6C49.6,26.7,47.5,21.6,43.5,18.1z M27.7,42.4c-2,0-4.3-0.3-7.1-1
			V25.6c-2.1-0.3-3.8-0.1-3.8-0.1c2.6-0.8,5.9-1.3,5.9-1.3l0,0c1.3-0.2,2.7-0.3,4.1-0.3c3.4,0,6,0.8,7.7,2.4
			c1.7,1.5,2.5,3.9,2.5,6.9C37.1,39.3,34,42.4,27.7,42.4z"/>
		<path d="M94.8,57.1L94.8,57.1c-2.3,0.8-3.4,1.5-3.4,1.5s0.3-0.2,0.8-0.6c0.9-0.7,1.8-1.4,2.7-2v-1.9l0,0V30.3
			c0-2.3-2.5-3.8-6.2-3.8s-6.2,1.5-6.2,3.8v22.2c-2.9,3.2-5.9,4.9-9,4.9c-4.4,0-6.3-2.3-6.3-7.4V39.4v-2.1v-7c0-2.3-2.5-3.8-6.1-3.8
			c-3.7,0-6.1,1.5-6.1,3.8v7v2.1v14c0,9.3,5.6,15.1,14.6,15.1c5.2,0,9.9-1.6,13.7-4.6c1.1,3.1,3.6,4.8,7.1,4.8
			c1.8,0,3.6-0.4,5.5-1.3c2.7-1.3,3.8-5,3.2-7.7C98.4,57.6,96.7,56.5,94.8,57.1z"/>
		<path d="M149.3,59.7c-0.5-2.1-2.2-3.2-4.1-2.7l0,0c-2.3,0.8-3.4,1.5-3.4,1.5s0.3-0.2,0.8-0.6c-0.4,0.2-0.7,0.3-0.7,0.3
			c1.1-0.9,2.3-1.8,3.3-2.5v-21c0-2.1-1.6-4.2-5.9-4.2h-20.9v-1.2c0-5.3,1.5-5.3,2.1-5.3c0.7,0,1.7,0.3,3,0.8l0,0c0,0,0,0,0.1,0l0,0
			c0.5,0.3,1.1,0.5,1.8,0.6h0.1c0.1,0,0.2,0,0.3,0.1c0.1,0,0.1,0,0.2,0s0.2,0,0.3,0s0.1,0,0.2,0s0.2,0,0.3,0s0.1,0,0.2,0
			s0.2,0,0.3,0s0.1,0,0.2,0s0.2,0,0.3,0s0.1,0,0.2,0c0.1,0,0.2,0,0.2-0.1c0.1,0,0.1,0,0.2-0.1c0.1,0,0.2-0.1,0.2-0.1
			c0.1,0,0.1-0.1,0.2-0.1c0.1,0,0.1-0.1,0.2-0.1c0.1,0,0.1-0.1,0.2-0.1c0.1,0,0.1-0.1,0.2-0.2c0.1,0,0.1-0.1,0.1-0.2
			c0.1-0.1,0.1-0.1,0.2-0.2c0-0.1,0.1-0.1,0.1-0.2s0.1-0.2,0.1-0.2c0-0.1,0.1-0.1,0.1-0.2c0.1-0.2,0.1-0.4,0.2-0.6
			c0-0.1,0-0.2,0.1-0.2l0,0l0,0c0.1-0.6,0.1-1.1,0-1.7v-0.1c0-0.3-0.1-0.7-0.2-1l0,0c-0.1-0.3-0.2-0.7-0.3-1c0,0,0,0,0-0.1
			c-0.9-2.4-3.1-4.5-7.1-5.5l0,0c0,0,0,0-0.1,0l0,0c-1.5-0.4-3-0.6-4.4-0.6c-3.7,0-12.2,1.6-12.2,16.1v1.6h-3
			c-2.3,0-3.9,2.3-3.9,5.6s1.6,5.6,3.9,5.6h3v23c0,2.4,2.5,3.9,6.2,3.9s6.2-1.6,6.2-3.9v-23h14.5v17.7c0,5.8,2.9,9.2,7.8,9.2
			c1.8,0,3.6-0.4,5.5-1.3C148.8,66.1,149.9,62.4,149.3,59.7z"/>
	</g>
	<g>
		<path d="M155.4,17.8c0-2.6,2.1-4.6,4.6-4.6c2.6,0,4.5,2.1,4.6,4.4c0.1,2.5-1.9,4.8-4.6,4.9C157.5,22.4,155.4,20.3,155.4,17.8z
			 M163.9,17.8c0-2.2-1.8-3.9-3.9-3.9c-2.1,0-3.9,1.8-3.9,3.9s1.8,3.9,3.9,3.9S163.9,19.9,163.9,17.8z"/>
		<path d="M158,14.9c1,0,2.1,0,3.1,0.1c0.7,0.1,1.1,0.6,1.2,1.3c0.1,0.7-0.3,1.3-1,1.5c-0.1,0-0.2,0.1-0.3,0.1
			c0.8,0.6,1.2,1.5,1.8,2.3c-0.5,0-0.8,0-1.2,0c-0.1,0-0.1-0.1-0.2-0.2c-0.4-0.5-0.7-1-1.1-1.6c-0.3-0.4-0.6-0.5-1.1-0.5
			c-0.2,0-0.1,0.1-0.1,0.2c0,0.6,0,1.1,0,1.7c0,0.1,0,0.2,0,0.3c-0.4,0-0.7,0-1,0C158,18.5,158,16.7,158,14.9z M159,17.1
			c0.5,0,1,0,1.5,0c0.4,0,0.6-0.3,0.6-0.6c0-0.4-0.2-0.6-0.6-0.6c-0.4,0-0.8,0-1.1,0c-0.1,0-0.3,0-0.4,0C159,16.3,159,16.7,159,17.1
			z"/>
	</g>
</g>
</svg>
