<svg xmlns="http://www.w3.org/2000/svg" width="27.968" height="25" viewBox="0 0 27.968 25">
  <defs>
    <style>
      .cls-1 {
        fill: #fff;
        fill-rule: evenodd;
      }
    </style>
  </defs>
  <path id="umbrella" class="cls-1" d="M594.731,46.263a18.212,18.212,0,0,0-7.129-3.825,13.735,13.735,0,0,0-6.153-.162,15.835,15.835,0,0,0-6.3,2.881l-2-1.979a1.065,1.065,0,0,0-1.49,0,1.04,1.04,0,0,0,0,1.475l2.67,2.643a1.057,1.057,0,0,0,1.438.047,12.486,12.486,0,0,1,15.771-.856c-0.128.052-.257,0.109-0.391,0.173a8.218,8.218,0,0,0-4.067,5.126,10.451,10.451,0,0,0-7.363,7.3,8.258,8.258,0,0,0-5.183,4.027c-0.065.133-.123,0.261-0.176,0.388-3.74-5.543-2.512-10.31-.683-13.458a1.037,1.037,0,0,0-.386-1.423,1.059,1.059,0,0,0-1.438.383c-1.934,3.32-4.207,10.032,2.279,17.652a1.066,1.066,0,0,0,.807.364,1.116,1.116,0,0,0,.409-0.081,1.035,1.035,0,0,0,.637-1.058c-0.006-.035-0.292-3.541,4.891-4.964a1.032,1.032,0,0,0,.754-0.815,8.944,8.944,0,0,1,2.3-4.172,8.747,8.747,0,0,1,4.172-2.239,1.049,1.049,0,0,0,.836-0.746c1.4-5,4.8-4.86,5.02-4.843A1.037,1.037,0,0,0,594.731,46.263ZM596.7,59.378l-1.21-1.2a1.066,1.066,0,0,0-1.49,0,1.041,1.041,0,0,0,0,1.476l1.21,1.2a1.678,1.678,0,0,1,0,2.384,1.718,1.718,0,0,1-2.407,0L586.6,57.1a1.066,1.066,0,0,0-1.49,0,1.041,1.041,0,0,0,0,1.476l6.2,6.139a3.836,3.836,0,0,0,5.388,0A3.745,3.745,0,0,0,596.7,59.378Z" transform="translate(-569.844 -42)"/>
</svg>
